<svg xmlns="http://www.w3.org/2000/svg" version="1.1" xmlns:xlink="http://www.w3.org/1999/xlink" xmlns:svgjs="http://svgjs.com/svgjs" width="1400" height="312" preserveAspectRatio="none" viewBox="0 0 1400 312"><g mask="url(&quot;#SvgjsMask3451&quot;)" fill="none"><rect width="1400" height="312" x="0" y="0" fill="url(#SvgjsLinearGradient3452)"></rect><path d="M234.41 273.82L244.32 273.82L244.32 290.13L234.41 290.13z" stroke="#d3b714"></path><path d="M1110.33 206.81a19.27 19.27 0 1 0-38.18 5.22z" stroke="#e73635"></path><path d="M1002.7 276.51a6.96 6.96 0 1 0 12.06 6.96z" fill="#e73635"></path><path d="M1021.99 304.46L1047.9 304.46L1047.9 322.47L1021.99 322.47z" fill="#d3b714"></path><path d="M921.55 309.14L951.23 309.14L951.23 338.82L921.55 338.82z" stroke="#d3b714"></path><path d="M1318.39 11.21L1328.56 11.21L1328.56 14.31L1318.39 14.31z" stroke="#e73635"></path><path d="M1167.04 183.22a4.1 4.1 0 1 0 1.25 8.1z" fill="#037b0b"></path><path d="M313.93 236.09a30.11 30.11 0 1 0-60.14-3.02z" fill="#d3b714"></path><path d="M479.48 219.47L502.21 219.47L502.21 242.2L479.48 242.2z" stroke="#037b0b"></path><path d="M1166.78 82.9L1196.84 82.9L1196.84 112.96L1166.78 112.96z" stroke="#037b0b"></path><path d="M15.98 273.37L21.9 273.37L21.9 296.52L15.98 296.52z" stroke="#d3b714"></path><path d="M1270.79 116.92L1301.19 116.92L1301.19 147.32L1270.79 147.32z" fill="#e73635"></path><path d="M707.44 304.29L719.05 304.29L719.05 315.9L707.44 315.9z" stroke="#e73635"></path><path d="M64.84 172.04L80.5 172.04L80.5 176.86L64.84 176.86z" fill="#037b0b"></path><path d="M49.8 37.12L73.87 37.12L73.87 61.19L49.8 61.19z" stroke="#e73635"></path><path d="M609.71 19.13L617.65 19.13L617.65 25.45L609.71 25.45z" stroke="#d3b714"></path><path d="M1101.19 244.84 a24.13 24.13 0 1 0 48.26 0 a24.13 24.13 0 1 0 -48.26 0z" stroke="#037b0b"></path><path d="M1048.81 268.69a30.63 30.63 0 1 0 49.2-36.5z" stroke="#e73635"></path><path d="M1005.72 40.98 a27.06 27.06 0 1 0 54.12 0 a27.06 27.06 0 1 0 -54.12 0z" stroke="#037b0b"></path><path d="M1137.76 131.49L1149.08 131.49L1149.08 142.81L1137.76 142.81z" fill="#e73635"></path><path d="M1209.6 183.3L1219.21 183.3L1219.21 203.67L1209.6 203.67z" stroke="#e73635"></path><path d="M151.87 168.04L152.17 168.04L152.17 168.34L151.87 168.34z" stroke="#d3b714"></path><path d="M335.08 38.71 a19.06 19.06 0 1 0 38.12 0 a19.06 19.06 0 1 0 -38.12 0z" stroke="#037b0b"></path><path d="M1046.52 108.13a20.87 20.87 0 1 0 26.42-32.31z" stroke="#d3b714"></path><path d="M342.95 263.16a26.17 26.17 0 1 0 20.14 48.31z" stroke="#037b0b"></path><path d="M175 193.09L177.54 193.09L177.54 195.63L175 195.63z" fill="#d3b714"></path><path d="M994.64 200.47a17.94 17.94 0 1 0-15.81-32.21z" stroke="#d3b714"></path><path d="M902.88 154.65L922.84 154.65L922.84 176.97L902.88 176.97z" fill="#037b0b"></path><path d="M840.09 20.12 a18.61 18.61 0 1 0 37.22 0 a18.61 18.61 0 1 0 -37.22 0z" stroke="#d3b714"></path><path d="M1075.35 11.1L1096.95 11.1L1096.95 32.7L1075.35 32.7z" stroke="#d3b714"></path><path d="M1199.78 64.3L1205.42 64.3L1205.42 69.94L1199.78 69.94z" fill="#037b0b"></path><path d="M820.2 8.51 a0.53 0.53 0 1 0 1.06 0 a0.53 0.53 0 1 0 -1.06 0z" fill="#037b0b"></path><path d="M1086.2 274.03a19.33 19.33 0 1 0-19.73 33.25z" fill="#d3b714"></path><path d="M740.42 49.87L757.52 49.87L757.52 66.97L740.42 66.97z" fill="#e73635"></path><path d="M328.38 23.65L343.65 23.65L343.65 38.92L328.38 38.92z" fill="#d3b714"></path><path d="M61.01 300.87L82.81 300.87L82.81 322.67L61.01 322.67z" stroke="#d3b714"></path><path d="M804.59 259.34a5.31 5.31 0 1 0 9.44-4.86z" stroke="#d3b714"></path><path d="M1032.28 1.76 a30.82 30.82 0 1 0 61.64 0 a30.82 30.82 0 1 0 -61.64 0z" fill="#037b0b"></path><path d="M529.99 261.7 a5.63 5.63 0 1 0 11.26 0 a5.63 5.63 0 1 0 -11.26 0z" stroke="#e73635"></path><path d="M1276.66 76.08a21.89 21.89 0 1 0 34.78 26.6z" stroke="#d3b714"></path><path d="M683.14 48.45L700.26 48.45L700.26 65.57L683.14 65.57z" stroke="#d3b714"></path><path d="M1105.91 118.07a23.52 23.52 0 1 0 13.62-45.02z" stroke="#037b0b"></path><path d="M225.68 7.37L246.55 7.37L246.55 9.53L225.68 9.53z" fill="#d3b714"></path><path d="M850.72 270.05L863.75 270.05L863.75 283.08L850.72 283.08z" stroke="#037b0b"></path><path d="M43.53 180.43a23.95 23.95 0 1 0-0.45 47.89z" stroke="#d3b714"></path><path d="M109.83 66.43L110.18 66.43L110.18 70.82L109.83 70.82z" stroke="#037b0b"></path><path d="M798.52 92.08a20.06 20.06 0 1 0 36.06 17.59z" stroke="#037b0b"></path><path d="M1017.88 10.48L1044.48 10.48L1044.48 37.08L1017.88 37.08z" stroke="#e73635"></path><path d="M27.58 89.91L30.74 89.91L30.74 93.07L27.58 93.07z" fill="#e73635"></path><path d="M1245.54 289.21 a22.87 22.87 0 1 0 45.74 0 a22.87 22.87 0 1 0 -45.74 0z" fill="#e73635"></path><path d="M821.32 56.47 a10.5 10.5 0 1 0 21 0 a10.5 10.5 0 1 0 -21 0z" fill="#037b0b"></path><path d="M1034.59 51.45L1056.66 51.45L1056.66 51.56L1034.59 51.56z" stroke="#037b0b"></path><path d="M311 2.32a15.8 15.8 0 1 0 31.39 3.64z" fill="#e73635"></path><path d="M71.12 178.79 a19.12 19.12 0 1 0 38.24 0 a19.12 19.12 0 1 0 -38.24 0z" stroke="#e73635"></path><path d="M242.7 12.14L266.29 12.14L266.29 35.73L242.7 35.73z" stroke="#e73635"></path><path d="M576.21 226.93a13.68 13.68 0 1 0 13.12-24.01z" stroke="#d3b714"></path><path d="M44.59 54.5 a20.97 20.97 0 1 0 41.94 0 a20.97 20.97 0 1 0 -41.94 0z" stroke="#d3b714"></path></g><defs><mask id="SvgjsMask3451"><rect width="1400" height="312" fill="#ffffff"></rect></mask><linearGradient x1="50%" y1="100%" x2="50%" y2="0%" gradientUnits="userSpaceOnUse" id="SvgjsLinearGradient3452"><stop stop-color="#0e2a47" offset="0"></stop><stop stop-color="rgba(254, 255, 254, 1)" offset="0"></stop></linearGradient></defs></svg>